# Blender 4.0.2
# www.blender.org
mtllib door_001.mtl
o Door06
v -0.000251 -0.994897 -0.050000
v 0.999954 -0.994897 -0.050000
v 0.999954 0.994897 -0.050000
v -0.000251 0.994897 -0.050000
v 0.999954 0.994897 0.050000
v -0.000251 0.994897 0.050000
v -0.000251 -0.994897 0.050000
v 0.999954 -0.994897 0.050000
vn -0.0000 -0.0000 -1.0000
vn -0.0000 -0.0000 1.0000
vn 1.0000 -0.0000 -0.0000
vn -0.0000 1.0000 -0.0000
vn -0.0000 -1.0000 -0.0000
vn -1.0000 -0.0000 -0.0000
vt 0.377606 1.000000
vt 0.377606 0.000000
vt 0.002271 0.000000
vt 0.002271 1.000000
vt 0.926748 0.000000
vt 0.926748 1.000000
vt 0.893680 1.000000
vt 0.893680 0.000000
vt 0.845133 0.063021
vt 0.845133 0.448129
vt 0.794876 0.448129
vt 0.794876 0.063021
vt 0.845133 0.906886
vt 0.845133 0.521778
vt 0.794877 0.521778
vt 0.794877 0.906886
vt 1.000000 1.000000
vt 1.000000 0.000000
vt 0.966932 0.000000
vt 0.966932 1.000000
s 0
usemtl Doors03
f 3/1/1 2/2/1 1/3/1 4/4/1
f 5/1/2 6/4/2 7/3/2 8/2/2
f 2/5/3 3/6/3 5/7/3 8/8/3
f 3/9/4 4/10/4 6/11/4 5/12/4
f 1/13/5 2/14/5 8/15/5 7/16/5
f 4/17/6 1/18/6 7/19/6 6/20/6
o DoorHandle_Handle
v 0.907189 -0.146951 0.134810
v 0.925910 -0.128230 0.126255
v 0.907189 -0.146951 0.061166
v 0.925910 -0.128230 0.061166
v 0.925910 -0.165673 0.126255
v 0.944632 -0.146951 0.134810
v 0.925910 -0.165673 0.061166
v 0.944632 -0.146951 0.061166
v 0.907189 -0.146951 0.104166
v 0.925910 -0.128230 0.104166
v 0.925910 -0.165673 0.104166
v 0.944632 -0.146951 0.104166
v 0.744836 -0.146951 0.104166
v 0.744836 -0.146951 0.134810
v 0.763557 -0.128229 0.126255
v 0.763557 -0.165673 0.126255
v 0.763557 -0.128229 0.104166
v 0.763557 -0.165673 0.104166
v 0.967563 -0.082158 0.070243
v 0.967563 -0.266430 0.070243
v 0.967563 -0.082158 0.039015
v 0.967563 -0.266430 0.039015
v 0.884259 -0.082158 0.070243
v 0.884259 -0.266430 0.070243
v 0.884259 -0.082158 0.039015
v 0.884259 -0.266430 0.039015
vn -0.4264 -0.0000 -0.9045
vn 0.2183 0.9636 -0.1544
vn -0.0000 1.0000 -0.0000
vn -1.0000 -0.0000 -0.0000
vn 0.2183 -0.9636 -0.1544
vn 1.0000 -0.0000 -0.0000
vn 0.4170 -0.9089 -0.0000
vn -0.0000 -0.0000 1.0000
vn -0.0000 -0.4156 0.9095
vn -0.0000 -0.0000 -1.0000
vn 0.4170 0.9089 -0.0000
vn -0.0000 -1.0000 -0.0000
vn -0.3827 -0.9239 -0.0000
vn -0.4170 -0.9089 -0.0000
vn -0.4170 0.9089 -0.0000
vn -0.3827 0.9239 -0.0000
vn -0.0000 0.4156 0.9095
vt 0.641944 0.357176
vt 0.641944 0.348806
vt 0.662737 0.348806
vt 0.662737 0.357176
vt 0.612309 0.348806
vt 0.612309 0.340436
vt 0.627127 0.340436
vt 0.622990 0.348806
vt 0.627126 0.357176
vt 0.671789 0.348806
vt 0.680842 0.340436
vt 0.680842 0.413021
vt 0.671789 0.421391
vt 0.641944 0.340436
vt 0.631263 0.348806
vt 0.662737 0.340436
vt 0.591516 0.357176
vt 0.591516 0.348806
vt 0.612309 0.357176
vt 0.591516 0.340436
vt 0.662737 0.413021
vt 0.612309 0.429762
vt 0.612309 0.421391
vt 0.622990 0.421391
vt 0.627126 0.429762
vt 0.627127 0.429762
vt 0.631263 0.421391
vt 0.641944 0.421391
vt 0.641944 0.429762
vt 0.627127 0.357176
vt 0.633423 0.562499
vt 0.633423 0.473272
vt 0.649166 0.473272
vt 0.649166 0.562499
vt 0.664910 0.473272
vt 0.664910 0.562499
vt 0.649166 0.473272
vt 0.591426 0.562499
vt 0.591426 0.473272
vt 0.633423 0.473272
vt 0.633423 0.562499
vt 0.664910 0.513609
vt 0.680653 0.473272
vt 0.680653 0.513609
vt 0.680653 0.553946
vt 0.664910 0.553946
s 1
usemtl Trim01
f 17/21/7 18/22/8 12/23/9 11/24/10
f 19/25/11 20/26/12 14/27/12 13/28/13
f 14/27/14 9/29/14 13/28/15
f 17/30/7 19/31/11 26/32/16 21/33/16
f 20/34/12 18/22/8 10/35/17 14/27/12
f 16/36/12 12/23/9 18/22/8 20/34/12
f 11/37/10 15/38/18 19/25/11 17/39/7
f 15/38/18 16/40/12 20/26/12 19/25/11
f 18/36/8 17/30/7 21/33/16 25/41/16
f 21/42/10 26/43/19 24/44/20 22/45/10
f 22/46/10 23/47/21 25/48/22 21/49/10
f 10/35/17 18/22/8 25/48/22 23/47/21
f 19/25/11 13/28/13 24/44/20 26/43/19
f 9/50/14 10/35/23 23/47/23 22/46/14
f 13/28/15 9/29/14 22/45/14 24/44/15
f 14/27/14 10/35/23 9/50/14
s 0
f 27/51/12 28/52/12 30/53/12 29/54/12
f 33/55/10 34/56/10 32/54/10 31/57/10
f 31/58/14 32/59/14 28/60/14 27/61/14
f 29/62/9 33/55/9 31/63/9 27/64/9
f 34/64/18 30/65/18 28/66/18 32/62/18
o DoorHandle_Handle.001
v 0.907189 -0.146951 -0.130233
v 0.925910 -0.128230 -0.121678
v 0.907189 -0.146951 -0.056589
v 0.925910 -0.128230 -0.056589
v 0.925910 -0.165673 -0.121678
v 0.944632 -0.146951 -0.130233
v 0.925910 -0.165673 -0.056589
v 0.944632 -0.146951 -0.056589
v 0.907189 -0.146951 -0.099589
v 0.925910 -0.128230 -0.099589
v 0.925910 -0.165673 -0.099589
v 0.944632 -0.146951 -0.099589
v 0.744836 -0.146951 -0.099589
v 0.744836 -0.146951 -0.130233
v 0.763557 -0.128229 -0.121678
v 0.763557 -0.165673 -0.121678
v 0.763557 -0.128229 -0.099589
v 0.763557 -0.165673 -0.099589
v 0.967563 -0.082158 -0.065666
v 0.967563 -0.266430 -0.065666
v 0.967563 -0.082158 -0.034438
v 0.967563 -0.266430 -0.034438
v 0.884259 -0.082158 -0.065666
v 0.884259 -0.266430 -0.065666
v 0.884259 -0.082158 -0.034438
v 0.884259 -0.266430 -0.034438
vn -0.4264 -0.0000 0.9045
vn 0.2183 0.9636 0.1544
vn -0.0000 1.0000 -0.0000
vn -1.0000 -0.0000 -0.0000
vn 0.2183 -0.9636 0.1544
vn 1.0000 -0.0000 -0.0000
vn 0.4170 -0.9089 -0.0000
vn -0.0000 -0.0000 -1.0000
vn -0.0000 -0.4156 -0.9095
vn -0.0000 -0.0000 1.0000
vn 0.4170 0.9089 -0.0000
vn -0.0000 -1.0000 -0.0000
vn -0.3827 -0.9239 -0.0000
vn -0.4170 -0.9089 -0.0000
vn -0.4170 0.9089 -0.0000
vn -0.3827 0.9239 -0.0000
vn -0.0000 0.4156 -0.9095
vt 0.641944 0.357176
vt 0.641944 0.348806
vt 0.662737 0.348806
vt 0.662737 0.357176
vt 0.612309 0.348806
vt 0.612309 0.340436
vt 0.627127 0.340436
vt 0.622990 0.348806
vt 0.627126 0.357176
vt 0.671789 0.348806
vt 0.680842 0.340436
vt 0.680842 0.413021
vt 0.671789 0.421391
vt 0.641944 0.340436
vt 0.631263 0.348806
vt 0.662737 0.340436
vt 0.591516 0.357176
vt 0.591516 0.348806
vt 0.612309 0.357176
vt 0.591516 0.340436
vt 0.662737 0.413021
vt 0.612309 0.429762
vt 0.612309 0.421391
vt 0.622990 0.421391
vt 0.627126 0.429762
vt 0.627127 0.429762
vt 0.631263 0.421391
vt 0.641944 0.421391
vt 0.641944 0.429762
vt 0.627127 0.357176
vt 0.633423 0.562499
vt 0.633423 0.473272
vt 0.649166 0.473272
vt 0.649166 0.562499
vt 0.664910 0.473272
vt 0.664910 0.562499
vt 0.649166 0.473272
vt 0.591426 0.562499
vt 0.591426 0.473272
vt 0.633423 0.473272
vt 0.633423 0.562499
vt 0.664910 0.513609
vt 0.680653 0.473272
vt 0.680653 0.513609
vt 0.680653 0.553946
vt 0.664910 0.553946
s 1
usemtl Trim01
f 43/67/24 37/70/27 38/69/26 44/68/25
f 45/71/28 39/74/30 40/73/29 46/72/29
f 40/73/31 39/74/32 35/75/31
f 43/76/24 47/79/33 52/78/33 45/77/28
f 46/80/29 40/73/29 36/81/34 44/68/25
f 42/82/29 46/80/29 44/68/25 38/69/26
f 37/83/27 43/85/24 45/71/28 41/84/35
f 41/84/35 45/71/28 46/72/29 42/86/29
f 44/82/25 51/87/33 47/79/33 43/76/24
f 47/88/27 48/91/27 50/90/37 52/89/36
f 48/92/27 47/95/27 51/94/39 49/93/38
f 36/81/34 49/93/38 51/94/39 44/68/25
f 45/71/28 52/89/36 50/90/37 39/74/30
f 35/96/31 48/92/31 49/93/40 36/81/40
f 39/74/32 50/90/32 48/91/31 35/75/31
f 40/73/31 35/96/31 36/81/40
s 0
f 53/97/29 55/100/29 56/99/29 54/98/29
f 59/101/27 57/103/27 58/100/27 60/102/27
f 57/104/31 53/107/31 54/106/31 58/105/31
f 55/108/26 53/110/26 57/109/26 59/101/26
f 60/110/35 58/108/35 54/112/35 56/111/35
