# Blender 4.0.2
# www.blender.org
mtllib new_drawer_1.mtl
o Props_BedsideTable_Drawer
v 0.230262 0.004323 0.244332
v 0.230262 0.145826 0.244332
v -0.230262 0.145826 0.244332
v -0.230262 0.004323 0.244332
v 0.230262 0.145826 0.224332
v 0.230262 0.004323 0.224332
v -0.230262 0.004323 0.224332
v -0.230262 0.145826 0.224332
v 0.230262 0.145826 -0.234100
v 0.230262 0.004323 -0.234100
v -0.230262 0.004323 -0.234100
v -0.230262 0.145826 -0.234100
v -0.212524 0.145826 0.206595
v 0.212524 0.145826 0.206595
v 0.212524 0.145826 -0.216363
v -0.212524 0.145826 -0.216363
v 0.212524 0.017142 0.206595
v -0.212524 0.017142 0.206595
v -0.212524 0.017142 -0.216363
v 0.212524 0.017142 -0.216363
v -0.054676 0.078647 0.267186
v -0.054676 0.095094 0.267186
v -0.054676 0.078647 0.234199
v -0.054676 0.095094 0.234199
v 0.054409 0.078647 0.267186
v 0.054409 0.095094 0.267186
v 0.054409 0.078647 0.234199
v 0.054409 0.095094 0.234199
vn -0.0000 -0.0000 1.0000
vn -1.0000 -0.0000 -0.0000
vn -0.0000 -1.0000 -0.0000
vn -0.0000 1.0000 -0.0000
vn 1.0000 -0.0000 -0.0000
vn -0.0000 -0.0000 -1.0000
vt 0.611606 0.395261
vt 0.526557 0.395261
vt 0.526557 0.118466
vt 0.611606 0.118466
vt 0.623627 0.118466
vt 0.623627 0.033417
vt 0.899165 0.033417
vt 0.899165 0.118466
vt 0.611606 0.033417
vt 0.623627 0.395261
vt 0.369843 0.474155
vt 0.528419 0.474154
vt 0.528419 0.481041
vt 0.369843 0.481041
vt 0.611606 0.480310
vt 0.623627 0.480310
vt 0.899165 0.395261
vt 0.984215 0.118466
vt 0.984215 0.395261
vt 0.576174 0.906244
vt 0.576174 0.649443
vt 0.653921 0.649443
vt 0.653921 0.906244
vt 0.899165 0.480310
vt 0.522311 0.487149
vt 0.375951 0.487149
vt 0.528419 0.638897
vt 0.522311 0.632789
vt 0.369843 0.638897
vt 0.375951 0.632789
vt 0.909459 0.649443
vt 0.909459 0.906244
vt 0.653921 0.571697
vt 0.909459 0.571697
vt 0.909459 0.983991
vt 0.653921 0.983991
vt 0.987205 0.649443
vt 0.987205 0.906244
vt 0.466993 0.395235
vt 0.466993 0.389945
vt 0.477603 0.389945
vt 0.477603 0.395235
vt 0.421298 0.395235
vt 0.421298 0.389945
vt 0.431908 0.389945
vt 0.431908 0.395235
vt 0.466993 0.405845
vt 0.431908 0.405845
vt 0.431908 0.379335
vt 0.466993 0.379335
s 0
usemtl PROPS_BedsideTable
f 1/1/1 2/2/1 3/3/1 4/4/1
f 7/5/2 8/6/2 12/7/2 11/8/2
f 4/4/2 3/9/2 8/6/2 7/5/2
f 1/1/3 4/4/3 7/5/3 6/10/3
f 3/11/4 2/12/4 5/13/4 8/14/4
f 2/15/5 1/1/5 6/10/5 5/16/5
f 10/17/6 11/8/6 12/18/6 9/19/6
f 6/10/3 7/5/3 11/8/3 10/17/3
f 15/20/1 16/21/1 19/22/1 20/23/1
f 5/16/5 6/10/5 10/17/5 9/24/5
f 8/14/4 5/13/4 14/25/4 13/26/4
f 5/13/4 9/27/4 15/28/4 14/25/4
f 9/27/4 12/29/4 16/30/4 15/28/4
f 12/29/4 8/14/4 13/26/4 16/30/4
f 18/31/4 17/32/4 20/23/4 19/22/4
f 16/33/5 13/34/5 18/31/5 19/22/5
f 14/35/2 15/36/2 20/23/2 17/32/2
f 13/37/6 14/38/6 17/32/6 18/31/6
f 21/39/2 22/40/2 24/41/2 23/42/2
f 27/43/5 28/44/5 26/45/5 25/46/5
f 25/46/1 26/45/1 22/40/1 21/39/1
f 23/47/3 27/48/3 25/46/3 21/39/3
f 28/49/4 24/50/4 22/40/4 26/45/4
