# Blender 4.0.2
# www.blender.org
mtllib pillar_2.mtl
o Pillar01_Solid
v -0.175069 0.000000 0.175069
v -0.175069 3.000000 0.175069
v -0.175069 0.000000 -0.175069
v -0.175069 3.000000 -0.175069
v 0.175069 0.000000 0.175069
v 0.175069 3.000000 0.175069
v 0.175069 0.000000 -0.175069
v 0.175069 3.000000 -0.175069
vn -1.0000 -0.0000 -0.0000
vn -0.0000 -0.0000 -1.0000
vn 1.0000 -0.0000 -0.0000
vn -0.0000 -0.0000 1.0000
vt 0.249075 0.000000
vt 0.249074 0.999863
vt 0.124537 0.999863
vt 0.124538 0.000000
vt 0.000000 0.999863
vt 0.000001 0.000000
vt 0.498148 0.000000
vt 0.498149 0.999863
vt 0.373612 0.999863
vt 0.373612 0.000000
s 0
usemtl Pillars
f 1/1/1 2/2/1 4/3/1 3/4/1
f 3/4/2 4/3/2 8/5/2 7/6/2
f 7/7/3 8/8/3 6/9/3 5/10/3
f 5/10/4 6/9/4 2/2/4 1/1/4
