# Blender 4.0.2
# www.blender.org
mtllib prop_table.mtl
o Props_DiningTable
v -0.617665 0.678261 1.073999
v -0.617665 0.734225 1.073999
v -0.617665 0.678261 -1.073999
v -0.617665 0.734225 -1.073999
v 0.617665 0.678261 1.073999
v 0.617665 0.734225 1.073999
v 0.617665 0.678261 -1.073999
v 0.617665 0.734225 -1.073999
v -0.550835 0.678261 -1.007169
v 0.550835 0.678261 -1.007169
v 0.550835 0.678261 1.007169
v -0.550835 0.678261 1.007169
v 0.550835 0.628191 -1.007169
v -0.550835 0.628191 -1.007169
v -0.550835 0.628191 1.007169
v 0.550835 0.628191 1.007169
v -0.486237 0.628191 -0.942571
v 0.486237 0.628191 -0.942571
v 0.486237 0.628191 0.942571
v -0.486237 0.628191 0.942571
v 0.486237 0.678501 -0.942571
v -0.486237 0.678501 -0.942571
v -0.486237 0.678501 0.942571
v 0.486237 0.678501 0.942571
v 0.439934 -0.009438 0.833021
v 0.439934 0.683409 0.833021
v 0.439934 -0.009438 0.898094
v 0.439934 0.683409 0.898094
v 0.374862 -0.009438 0.833021
v 0.374862 0.683409 0.833021
v 0.374862 -0.009438 0.898094
v 0.374862 0.683409 0.898094
v -0.356239 -0.009438 0.833021
v -0.356239 0.683409 0.833021
v -0.356239 -0.009438 0.898094
v -0.356239 0.683409 0.898094
v -0.421311 -0.009438 0.833021
v -0.421311 0.683409 0.833021
v -0.421311 -0.009438 0.898094
v -0.421311 0.683409 0.898094
v 0.439934 -0.009438 -0.889467
v 0.439934 0.683409 -0.889467
v 0.439934 -0.009438 -0.824394
v 0.439934 0.683409 -0.824394
v 0.374862 -0.009438 -0.889467
v 0.374862 0.683409 -0.889467
v 0.374862 -0.009438 -0.824394
v 0.374862 0.683409 -0.824394
v -0.356239 -0.009438 -0.889467
v -0.356239 0.683409 -0.889467
v -0.356239 -0.009438 -0.824394
v -0.356239 0.683409 -0.824394
v -0.421311 -0.009438 -0.889467
v -0.421311 0.683409 -0.889467
v -0.421311 -0.009438 -0.824394
v -0.421311 0.683409 -0.824394
v -0.392166 0.145950 0.875601
v -0.392166 0.256107 0.875601
v -0.392166 0.145950 0.856914
v -0.392166 0.256107 0.856914
v 0.399695 0.145950 0.875601
v 0.399695 0.256107 0.875601
v 0.399695 0.145950 0.856914
v 0.399695 0.256107 0.856914
v -0.392166 0.145950 -0.847774
v -0.392166 0.256107 -0.847774
v -0.392166 0.145950 -0.866461
v -0.392166 0.256107 -0.866461
v 0.399695 0.145950 -0.847774
v 0.399695 0.256107 -0.847774
v 0.399695 0.145950 -0.866461
v 0.399695 0.256107 -0.866461
vn -1.0000 -0.0000 -0.0000
vn -0.0000 -0.0000 -1.0000
vn 1.0000 -0.0000 -0.0000
vn -0.0000 -0.0000 1.0000
vn -0.0000 1.0000 -0.0000
vn -0.0000 -1.0000 -0.0000
vt 0.567939 0.899409
vt 0.545378 0.899409
vt 0.545379 0.033471
vt 0.567939 0.033471
vt 0.545379 0.010910
vt 0.047371 0.033471
vt 0.047371 0.010910
vt 0.024810 0.033471
vt 0.047371 0.899408
vt 0.024810 0.899408
vt 0.047371 0.921969
vt 0.545378 0.921969
vt 0.372675 1.000000
vt 0.057837 1.000000
vt 0.057837 0.985691
vt 0.372675 0.985691
vt 0.985056 0.703406
vt 0.589808 0.703405
vt 0.611189 0.682023
vt 0.963674 0.682024
vt 0.589808 0.016137
vt 0.611190 0.037519
vt 0.985056 0.016138
vt 0.963675 0.037520
vt 0.960076 0.967229
vt 0.421342 0.967230
vt 0.421342 0.952852
vt 0.960076 0.952851
vt 0.978537 1.000000
vt 0.402881 1.000000
vt 0.402881 0.985691
vt 0.978537 0.985690
vt 0.978537 1.000000
vt 0.402881 0.985691
vt 0.978537 0.985691
vt 0.057837 1.000000
vt 0.057838 0.985691
vt 0.372675 0.985691
vt 0.076299 0.967230
vt 0.354214 0.967230
vt 0.076299 0.967230
vt 0.354214 0.967230
vt 0.960076 0.967229
vt 0.625139 0.042051
vt 0.952078 0.042051
vt 0.952078 0.675821
vt 0.625139 0.675821
vt 0.076299 0.952852
vt 0.354214 0.952852
vt 0.076299 0.952852
vt 0.354214 0.952852
vt 0.421342 0.952852
vt 0.960076 0.952851
vt 0.620998 0.860419
vt 0.889675 0.860420
vt 0.889675 0.885654
vt 0.620998 0.885654
vt 0.889675 0.885654
vt 0.889675 0.910888
vt 0.620998 0.910888
vt 0.889675 0.910888
vt 0.889675 0.936122
vt 0.620998 0.936122
vt 0.620998 0.835185
vt 0.889675 0.835185
vt 0.889675 0.860420
vt 0.592619 0.912412
vt 0.592619 0.887178
vt 0.617853 0.887178
vt 0.617853 0.912412
vt 0.967107 0.936122
vt 0.698430 0.936122
vt 0.698430 0.910888
vt 0.967107 0.910888
vt 0.698430 0.910888
vt 0.698430 0.885654
vt 0.967107 0.885654
vt 0.698430 0.885654
vt 0.698430 0.860419
vt 0.967107 0.860420
vt 0.698430 0.860419
vt 0.698430 0.835185
vt 0.967107 0.835185
vt 0.592619 0.886416
vt 0.592619 0.861181
vt 0.617853 0.861181
vt 0.617853 0.886416
vt 0.620998 0.885654
vt 0.889675 0.885654
vt 0.620998 0.910888
vt 0.889675 0.936122
vt 0.620998 0.936122
vt 0.620998 0.835185
vt 0.889675 0.835185
vt 0.889675 0.860420
vt 0.620998 0.860420
vt 0.889675 0.885654
vt 0.592619 0.860419
vt 0.592619 0.835185
vt 0.617853 0.835185
vt 0.617853 0.860419
vt 0.889674 0.910888
vt 0.592619 0.938408
vt 0.592619 0.913174
vt 0.617853 0.913174
vt 0.617853 0.938408
vt 0.659401 0.812979
vt 0.659401 0.770262
vt 0.966473 0.770261
vt 0.966473 0.812979
vt 0.966472 0.720297
vt 0.966473 0.763014
vt 0.659401 0.763015
vt 0.659401 0.720297
vt 0.659401 0.713050
vt 0.966472 0.713050
vt 0.966473 0.720298
vt 0.966472 0.763015
vt 0.659401 0.763014
vt 0.659401 0.720297
vt 0.659401 0.812979
vt 0.659401 0.770262
vt 0.966472 0.770261
vt 0.966472 0.812979
vt 0.659401 0.713050
vt 0.966473 0.713050
s 0
usemtl Prop_DiningTable
f 1/1/1 2/2/1 4/3/1 3/4/1
f 3/5/2 4/3/2 8/6/2 7/7/2
f 7/8/3 8/6/3 6/9/3 5/10/3
f 5/11/4 6/9/4 2/2/4 1/12/4
f 11/13/4 12/14/4 15/15/4 16/16/4
f 8/6/5 4/3/5 2/2/5 6/9/5
f 3/17/6 7/18/6 10/19/6 9/20/6
f 7/18/6 5/21/6 11/22/6 10/19/6
f 5/21/6 1/23/6 12/24/6 11/22/6
f 1/23/6 3/17/6 9/20/6 12/24/6
f 18/25/1 19/26/1 24/27/1 21/28/1
f 12/29/1 9/30/1 14/31/1 15/32/1
f 10/33/3 11/30/3 16/34/3 13/35/3
f 9/13/2 10/36/2 13/37/2 14/38/2
f 14/38/6 13/37/6 18/39/6 17/40/6
f 13/35/6 16/34/6 19/26/6 18/25/6
f 16/16/6 15/15/6 20/41/6 19/42/6
f 15/32/6 14/31/6 17/26/6 20/43/6
f 22/44/6 21/45/6 24/46/6 23/47/6
f 17/40/4 18/39/4 21/48/4 22/49/4
f 19/42/2 20/41/2 23/50/2 24/51/2
f 20/43/3 17/26/3 22/52/3 23/53/3
f 25/54/3 26/55/3 28/56/3 27/57/3
f 27/57/4 28/58/4 32/59/4 31/60/4
f 31/60/1 32/61/1 30/62/1 29/63/1
f 29/64/2 30/65/2 26/66/2 25/54/2
f 27/67/6 31/68/6 29/69/6 25/70/6
f 33/71/3 34/72/3 36/73/3 35/74/3
f 35/74/4 36/75/4 40/76/4 39/77/4
f 39/77/1 40/78/1 38/79/1 37/80/1
f 37/80/2 38/81/2 34/82/2 33/83/2
f 35/84/6 39/85/6 37/86/6 33/87/6
f 41/88/3 42/89/3 44/61/3 43/90/3
f 43/90/4 44/61/4 48/91/4 47/92/4
f 47/93/1 48/94/1 46/95/1 45/96/1
f 45/96/2 46/95/2 42/97/2 41/88/2
f 43/98/6 47/99/6 45/100/6 41/101/6
f 49/60/3 50/102/3 52/62/3 51/63/3
f 51/64/4 52/65/4 56/66/4 55/54/4
f 55/54/1 56/55/1 54/56/1 53/57/1
f 53/57/2 54/58/2 50/102/2 49/60/2
f 51/103/6 55/104/6 53/105/6 49/106/6
f 59/107/2 60/108/2 64/109/2 63/110/2
f 61/111/4 62/112/4 58/113/4 57/114/4
f 59/115/6 63/116/6 61/111/6 57/114/6
f 64/109/5 60/108/5 58/113/5 62/112/5
f 67/117/2 68/118/2 72/119/2 71/120/2
f 69/121/4 70/122/4 66/123/4 65/124/4
f 67/117/6 71/120/6 69/125/6 65/126/6
f 72/119/5 68/118/5 66/123/5 70/122/5
