# Blender 4.0.2
# www.blender.org
mtllib prop_fireplace.mtl
o Props_FireSurround
v 0.674550 0.002690 0.292257
v -0.674550 0.002690 0.292257
v 0.934158 1.443115 0.292258
v 0.934158 0.002690 0.292257
v -0.934158 1.443115 0.292258
v -0.934158 0.002690 0.292257
v -0.674550 1.188688 0.292258
v 0.674550 1.188688 0.292258
v -0.934158 0.002690 0.450133
v -0.934158 1.443115 0.450133
v 0.934158 0.002690 0.450133
v 0.934158 1.443115 0.450133
v -0.674550 0.002690 0.450133
v 0.674550 0.002690 0.450133
v 0.674550 1.188688 0.450133
v -0.674550 1.188688 0.450133
v -0.934158 1.489614 0.450133
v -0.934158 1.489614 0.292258
v 0.934158 1.489614 0.450133
v 0.934158 1.489614 0.292258
v -0.964611 1.443115 0.483962
v -0.964611 1.443115 0.289930
v 0.964611 1.443115 0.483962
v 0.964611 1.443115 0.289930
v -0.964611 1.489614 0.483962
v -0.964611 1.489614 0.289930
v 0.964611 1.489614 0.483962
v 0.964611 1.489614 0.289930
v 0.404730 1.288688 0.450133
v 0.134910 1.338688 0.450133
v -0.134910 1.338688 0.450133
v -0.404730 1.288688 0.450133
v 0.404730 1.288688 0.292258
v 0.134910 1.338688 0.292258
v -0.134910 1.338688 0.292258
v -0.404730 1.288688 0.292258
v 0.560495 1.443115 0.450133
v 0.186832 1.443115 0.450133
v -0.186832 1.443115 0.450133
v -0.560495 1.443115 0.450133
v 0.560495 1.489614 0.292258
v 0.186832 1.489614 0.292258
v -0.186832 1.489614 0.292258
v -0.560495 1.489614 0.292258
v 0.560495 1.489614 0.450133
v 0.186832 1.489614 0.450133
v -0.186832 1.489614 0.450133
v -0.560495 1.489614 0.450133
v 0.578767 1.443115 0.483962
v 0.192922 1.443115 0.483962
v -0.192922 1.443115 0.483962
v -0.578767 1.443115 0.483962
v 0.578767 1.489614 0.289930
v 0.192922 1.489614 0.289930
v -0.192922 1.489614 0.289930
v -0.578767 1.489614 0.289930
v 0.578767 1.489614 0.483962
v 0.192922 1.489614 0.483962
v -0.192922 1.489614 0.483962
v -0.578767 1.489614 0.483962
v -0.754869 1.425391 0.290411
v -0.754869 1.202095 0.290411
v -0.754869 1.425391 0.363606
v -0.754869 1.202095 0.363606
v 0.685060 1.425391 0.290411
v 0.685060 1.202095 0.290411
v 0.685060 1.425391 0.363606
v 0.685060 1.202095 0.363606
vn -0.0000 -1.0000 -0.0000
vn 1.0000 -0.0000 -0.0000
vn -0.0000 -0.0000 1.0000
vn -0.2658 -0.9640 -0.0000
vn -0.3475 -0.9377 -0.0000
vn -1.0000 -0.0000 -0.0000
vn -0.0000 1.0000 -0.0000
vn 0.7071 -0.0000 0.7071
vn -0.7071 -0.0000 0.7071
vn 0.3475 -0.9377 -0.0000
vn 0.2658 -0.9640 -0.0000
vn 0.0915 -0.9958 -0.0000
vn -0.0915 -0.9958 -0.0000
vt 0.301589 0.650563
vt 0.169139 0.650563
vt 0.158345 0.639422
vt 0.295113 0.639422
vt 0.162717 0.230301
vt 0.162717 0.169453
vt 0.760244 0.169453
vt 0.760244 0.230301
vt 1.000000 0.180732
vt 1.000000 0.951571
vt 0.861071 0.815415
vt 0.861071 0.180732
vt 0.200140 0.951571
vt 0.000176 0.951571
vt 0.139104 0.815415
vt 0.283498 0.868930
vt 0.000176 0.180732
vt 0.139104 0.180732
vt 0.354994 0.353620
vt 0.354994 0.415459
vt 0.241242 0.415459
vt 0.241242 0.353620
vt 0.317788 0.730840
vt 0.317788 0.669001
vt 0.817788 0.669001
vt 0.817788 0.730840
vt 0.760244 0.230301
vt 0.760244 0.291149
vt 0.162717 0.291149
vt 0.162717 0.230301
vt 0.658607 0.537442
vt 0.658607 0.599282
vt 0.158607 0.599282
vt 0.158607 0.537443
vt 0.689418 0.119505
vt 0.689419 0.068361
vt 0.819702 0.068361
vt 0.819702 0.119505
vt 0.830320 0.067608
vt 0.830320 0.130464
vt 0.322740 0.743283
vt 0.195465 0.743283
vt 0.185092 0.742546
vt 0.316516 0.742546
vt 0.698727 0.497584
vt 0.831852 0.497584
vt 0.831852 0.512490
vt 0.698727 0.512490
vt 0.197935 0.694030
vt 0.279736 0.694030
vt 0.279736 0.712243
vt 0.197935 0.712243
vt 0.702306 0.558572
vt 0.784107 0.558572
vt 0.784107 0.576786
vt 0.702306 0.576786
vt 0.695789 0.130464
vt 0.168283 0.068361
vt 0.168283 0.119505
vt 0.157665 0.130464
vt 0.157665 0.067608
vt 0.169139 0.702556
vt 0.158345 0.703323
vt 0.831390 0.702556
vt 0.831390 0.650563
vt 0.842185 0.639422
vt 0.842185 0.703323
vt 0.298567 0.119505
vt 0.292196 0.130463
vt 0.428851 0.119505
vt 0.426727 0.130463
vt 0.559135 0.119505
vt 0.561258 0.130463
vt 0.166231 0.497584
vt 0.299355 0.497584
vt 0.299355 0.512490
vt 0.166231 0.512490
vt 0.432479 0.497584
vt 0.432479 0.512490
vt 0.565603 0.497584
vt 0.565603 0.512490
vt 0.831840 0.743283
vt 0.704565 0.743283
vt 0.710788 0.742546
vt 0.842212 0.742546
vt 0.577290 0.743283
vt 0.579364 0.742546
vt 0.450015 0.743283
vt 0.447940 0.742546
vt 0.298567 0.068361
vt 0.428851 0.068361
vt 0.559135 0.068361
vt 0.810003 0.353620
vt 0.810003 0.415459
vt 0.696251 0.415459
vt 0.696251 0.353620
vt 0.582499 0.415459
vt 0.582499 0.353620
vt 0.468747 0.415459
vt 0.468747 0.353620
vt 0.800035 0.951571
vt 0.716678 0.868930
vt 0.600070 0.951571
vt 0.572284 0.895687
vt 0.400105 0.951571
vt 0.427891 0.895687
vt 0.698940 0.650563
vt 0.705417 0.639422
vt 0.566490 0.650563
vt 0.568649 0.639422
vt 0.434040 0.650563
vt 0.431881 0.639422
vt 0.245164 0.940611
vt 0.245164 0.863254
vt 0.744006 0.863254
vt 0.744006 0.940612
vt 0.744006 0.965969
vt 0.245164 0.965969
vt 0.744006 0.871391
vt 0.245164 0.871391
vt 0.245164 0.846033
vt 0.744006 0.846033
s 1
usemtl Prop_FireSurrpund
f 37/1/1 12/2/1 23/3/1 49/4/1
f 11/5/2 4/6/2 3/7/2 12/8/2
f 11/9/3 12/10/3 15/11/3 14/12/3
f 40/13/3 10/14/3 16/15/3 32/16/3
f 10/14/3 9/17/3 13/18/3 16/15/3
f 29/19/4 33/20/4 8/21/5 15/22/5
f 13/23/2 2/24/2 7/25/2 16/26/2
f 10/27/6 5/28/6 6/29/6 9/30/6
f 15/31/6 8/32/6 1/33/6 14/34/6
f 48/35/7 44/36/7 18/37/7 17/38/7
f 17/38/7 18/37/7 26/39/7 25/40/7
f 41/41/7 20/42/7 28/43/7 53/44/7
f 49/45/3 23/46/8 27/47/8 57/48/3
f 23/49/8 24/50/2 28/51/2 27/52/8
f 22/53/6 21/54/9 25/55/9 26/56/6
f 48/35/7 17/38/7 25/40/7 60/57/7
f 20/58/7 19/59/7 27/60/7 28/61/7
f 12/2/1 3/62/1 24/63/1 23/3/1
f 5/64/1 10/65/1 21/66/1 22/67/1
f 19/59/7 45/68/7 57/69/7 27/60/7
f 45/68/7 46/70/7 58/71/7 57/69/7
f 46/70/7 47/72/7 59/73/7 58/71/7
f 47/72/7 48/35/7 60/57/7 59/73/7
f 21/74/9 52/75/3 60/76/3 25/77/9
f 52/75/3 51/78/3 59/79/3 60/76/3
f 51/78/3 50/80/3 58/81/3 59/79/3
f 50/80/3 49/45/3 57/48/3 58/81/3
f 18/82/7 44/83/7 56/84/7 26/85/7
f 44/83/7 43/86/7 55/87/7 56/84/7
f 43/86/7 42/88/7 54/89/7 55/87/7
f 42/88/7 41/41/7 53/44/7 54/89/7
f 19/59/7 20/58/7 41/90/7 45/68/7
f 45/68/7 41/90/7 42/91/7 46/70/7
f 46/70/7 42/91/7 43/92/7 47/72/7
f 47/72/7 43/92/7 44/36/7 48/35/7
f 16/93/10 7/94/10 36/95/11 32/96/11
f 32/96/11 36/95/11 35/97/12 31/98/12
f 31/98/12 35/97/12 34/99/13 30/100/13
f 30/100/13 34/99/13 33/20/4 29/19/4
f 12/10/3 37/101/3 29/102/3 15/11/3
f 37/101/3 38/103/3 30/104/3 29/102/3
f 38/103/3 39/105/3 31/106/3 30/104/3
f 39/105/3 40/13/3 32/16/3 31/106/3
f 10/65/1 40/107/1 52/108/1 21/66/1
f 40/107/1 39/109/1 51/110/1 52/108/1
f 39/109/1 38/111/1 50/112/1 51/110/1
f 38/111/1 37/1/1 49/4/1 50/112/1
s 0
f 63/113/3 64/114/3 68/115/3 67/116/3
f 63/113/7 67/116/7 65/117/7 61/118/7
f 68/119/1 64/120/1 62/121/1 66/122/1
