# Blender 4.0.2
# www.blender.org
mtllib prop_light_2.mtl
o Props_LightFixture_02
v -0.130407 -0.024641 1.061108
v -0.130407 0.071353 1.061108
v -0.130407 -0.024641 -1.061108
v -0.130407 0.071353 -1.061108
v 0.130407 -0.024641 1.061108
v 0.130407 0.071353 1.061108
v 0.130407 -0.024641 -1.061108
v 0.130407 0.071353 -1.061108
v 0.105142 -0.024641 -1.061108
v -0.105144 -0.024641 -1.061108
v -0.105144 0.071353 -1.061108
v 0.105142 0.071353 -1.061108
v -0.105144 -0.024641 1.061108
v 0.105142 -0.024641 1.061108
v 0.105142 0.071353 1.061108
v -0.105144 0.071353 1.061108
v -0.167155 -0.123143 -1.061108
v -0.167155 -0.123143 1.061108
v -0.134773 -0.123143 -1.061108
v 0.167155 -0.123143 1.061108
v 0.167155 -0.123143 -1.061108
v 0.134771 -0.123143 1.061108
v 0.134771 -0.123143 -1.061108
v -0.134773 -0.123143 1.061108
v -0.045213 -0.033086 -1.000000
v -0.045213 -0.033086 1.000000
v -0.011951 -0.052290 -1.000000
v -0.011951 -0.052290 1.000000
v -0.011951 -0.090698 -1.000000
v -0.011951 -0.090699 1.000000
v -0.045213 -0.109903 -1.000000
v -0.045213 -0.109903 1.000000
v -0.078476 -0.090698 -1.000000
v -0.078476 -0.090699 1.000000
v -0.078476 -0.052290 -1.000000
v -0.078476 -0.052290 1.000000
v 0.008357 -0.089956 -1.000000
v 0.008357 -0.089956 1.000000
v 0.009212 -0.051557 -1.000000
v 0.009212 -0.051557 1.000000
v 0.042894 -0.033098 -1.000000
v 0.042894 -0.033098 1.000000
v 0.075721 -0.053038 -1.000000
v 0.075721 -0.053038 1.000000
v 0.074866 -0.091437 -1.000000
v 0.074866 -0.091437 1.000000
v 0.041184 -0.109895 -1.000000
v 0.041184 -0.109895 1.000000
vn -1.0000 -0.0000 -0.0000
vn -0.0000 -0.0000 -1.0000
vn 1.0000 -0.0000 -0.0000
vn -0.0000 -0.0000 1.0000
vn -0.9369 0.3495 -0.0000
vn 0.9576 -0.2880 -0.0000
vn -0.0000 -1.0000 -0.0000
vn 0.9369 0.3495 -0.0000
vn -0.9576 -0.2880 -0.0000
vn -0.0000 1.0000 -0.0000
vn 0.8660 0.5000 -0.0000
vn 0.8660 -0.5000 -0.0000
vn -0.8660 -0.5000 -0.0000
vn -0.8660 0.5000 -0.0000
vn -0.8769 -0.4806 -0.0000
vn -0.8547 0.5192 -0.0000
vn 0.0223 0.9998 -0.0000
vn 0.8769 0.4806 -0.0000
vn 0.8547 -0.5192 -0.0000
vn -0.0223 -0.9998 -0.0000
vt 0.735835 0.098524
vt 0.775665 0.098524
vt 0.775665 0.977891
vt 0.735836 0.977891
vt 0.675801 0.047252
vt 0.675801 0.087238
vt 0.665263 0.087238
vt 0.665263 0.047252
vt 0.445234 0.977824
vt 0.405403 0.977824
vt 0.405403 0.098457
vt 0.445232 0.098457
vt 0.675947 0.047252
vt 0.675947 0.087238
vt 0.665410 0.087238
vt 0.665410 0.047252
vt 0.692213 0.977891
vt 0.692212 0.098525
vt 0.634161 0.977857
vt 0.634162 0.098491
vt 0.676842 0.098491
vt 0.676843 0.977858
vt 0.546907 0.977857
vt 0.546908 0.098491
vt 0.774199 0.047252
vt 0.774199 0.087238
vt 0.763661 0.087238
vt 0.763661 0.047252
vt 0.774052 0.047252
vt 0.774052 0.087238
vt 0.763514 0.087238
vt 0.763514 0.047252
vt 0.504226 0.977857
vt 0.488856 0.977824
vt 0.488855 0.098457
vt 0.504225 0.098491
vt 0.650082 0.006222
vt 0.663589 0.006222
vt 0.649935 0.006222
vt 0.663442 0.006222
vt 0.776019 0.006222
vt 0.789527 0.006222
vt 0.775873 0.006222
vt 0.789380 0.006222
vt 0.890229 0.144776
vt 0.890234 0.977891
vt 0.874212 0.977891
vt 0.874210 0.144777
vt 0.858191 0.977891
vt 0.858191 0.144777
vt 0.842170 0.977891
vt 0.842172 0.144777
vt 0.826149 0.977891
vt 0.826153 0.144777
vt 0.896999 0.112679
vt 0.888989 0.126534
vt 0.872968 0.126534
vt 0.864958 0.112679
vt 0.872968 0.098824
vt 0.888989 0.098824
vt 0.810128 0.977891
vt 0.810134 0.144776
vt 0.794107 0.977891
vt 0.794115 0.144776
vt 0.840633 0.126534
vt 0.832623 0.112679
vt 0.840633 0.098824
vt 0.856654 0.098824
vt 0.864664 0.112679
vt 0.856654 0.126534
vt 0.986650 0.144776
vt 0.986655 0.977891
vt 0.970633 0.977891
vt 0.970631 0.144777
vt 0.954612 0.977891
vt 0.954612 0.144777
vt 0.938591 0.977891
vt 0.938593 0.144777
vt 0.922570 0.977891
vt 0.922574 0.144777
vt 0.921324 0.126534
vt 0.905303 0.126534
vt 0.897293 0.112679
vt 0.905303 0.098824
vt 0.921324 0.098824
vt 0.929334 0.112679
vt 0.906549 0.977891
vt 0.906555 0.144777
vt 0.890527 0.977891
vt 0.890536 0.144776
vt 0.953659 0.126534
vt 0.937639 0.126534
vt 0.929628 0.112679
vt 0.937639 0.098824
vt 0.953659 0.098824
vt 0.961669 0.112679
s 0
usemtl Props_Lights
f 1/1/1 2/2/1 4/3/1 3/4/1
f 9/5/2 12/6/2 8/7/2 7/8/2
f 7/9/3 8/10/3 6/11/3 5/12/3
f 13/13/4 16/14/4 2/15/4 1/16/4
f 1/1/5 3/4/5 17/17/5 18/18/5
f 10/19/6 13/20/6 24/21/6 19/22/6
f 10/19/7 9/23/7 14/24/7 13/20/7
f 5/25/4 6/26/4 15/27/4 14/28/4
f 14/28/4 15/27/4 16/14/4 13/13/4
f 3/29/2 4/30/2 11/31/2 10/32/2
f 10/32/2 11/31/2 12/6/2 9/5/2
f 23/33/7 21/34/7 20/35/7 22/36/7
f 17/17/7 19/22/7 24/21/7 18/18/7
f 7/9/8 5/12/8 20/35/8 21/34/8
f 13/13/4 1/16/4 18/37/4 24/38/4
f 14/24/9 9/23/9 23/33/9 22/36/9
f 9/5/2 7/8/2 21/39/2 23/40/2
f 5/25/4 14/28/4 22/41/4 20/42/4
f 3/29/2 10/32/2 19/43/2 17/44/2
s 1
f 25/45/10 26/46/10 28/47/11 27/48/11
f 27/48/11 28/47/11 30/49/12 29/50/12
f 29/50/12 30/49/12 32/51/7 31/52/7
f 31/52/7 32/51/7 34/53/13 33/54/13
f 28/55/4 26/56/4 36/57/4 34/58/4 32/59/4 30/60/4
f 33/54/13 34/53/13 36/61/14 35/62/14
f 35/62/14 36/61/14 26/63/10 25/64/10
f 25/65/2 27/66/2 29/67/2 31/68/2 33/69/2 35/70/2
f 37/71/15 38/72/15 40/73/16 39/74/16
f 39/74/16 40/73/16 42/75/17 41/76/17
f 41/76/17 42/75/17 44/77/18 43/78/18
f 43/78/18 44/77/18 46/79/19 45/80/19
f 40/81/4 38/82/4 48/83/4 46/84/4 44/85/4 42/86/4
f 45/80/19 46/79/19 48/87/20 47/88/20
f 47/88/20 48/87/20 38/89/15 37/90/15
f 37/91/2 39/92/2 41/93/2 43/94/2 45/95/2 47/96/2
