# Blender 4.0.2
# www.blender.org
mtllib prop_rug.mtl
o Props_Rug02
v 1.069476 0.006469 2.088504
v -1.069476 0.028784 2.088504
v 1.069476 0.006469 -2.088504
v -1.069476 0.028784 -2.088504
v -1.069476 0.006469 -2.088504
v 1.069476 0.028784 2.088504
v -1.069476 0.006469 2.088504
v 1.069476 0.028784 -2.088504
vn 1.0000 -0.0000 -0.0000
vn -0.0000 -0.0000 -1.0000
vn -0.0000 -0.0000 1.0000
vn -0.0000 1.0000 -0.0000
vn -1.0000 -0.0000 -0.0000
vt 0.014643 0.027790
vt 0.000000 0.014694
vt 0.000000 1.000000
vt 0.011925 0.983635
vt 0.485588 0.985474
vt 0.470945 0.972378
vt 0.473663 0.016532
vt 0.485588 0.000168
vt 0.492456 1.000000
vt 0.001934 1.000000
vt 0.001934 0.000000
vt 0.492456 0.000000
s 0
usemtl Props_Rugs
f 6/1/1 1/2/1 3/3/1 8/4/1
f 8/4/2 3/3/2 5/5/2 4/6/2
f 2/7/3 7/8/3 1/2/3 6/1/3
f 8/9/4 4/10/4 2/11/4 6/12/4
f 4/6/5 5/5/5 7/8/5 2/7/5
