# Blender 4.0.2
# www.blender.org
mtllib prop_nightstand.mtl
o Props_BedsideTable
v -0.244332 0.000000 0.244332
v -0.244332 0.488665 0.244332
v -0.244332 0.000000 -0.244332
v -0.244332 0.488665 -0.244332
v 0.244332 0.000000 0.244332
v 0.244332 0.488665 0.244332
v 0.244332 0.000000 -0.244332
v 0.244332 0.488665 -0.244332
v 0.230262 0.014071 0.244332
v 0.230262 0.474594 0.244332
v -0.230262 0.474594 0.244332
v -0.230262 0.014071 0.244332
v 0.230262 0.474594 -0.208628
v 0.230262 0.014071 -0.208628
v -0.230262 0.014071 -0.208628
v -0.230262 0.474594 -0.208628
vn -1.0000 -0.0000 -0.0000
vn -0.0000 -0.0000 -1.0000
vn 1.0000 -0.0000 -0.0000
vn -0.0000 -1.0000 -0.0000
vn -0.0000 1.0000 -0.0000
vn -0.0000 -0.0000 1.0000
vt 0.007559 0.827160
vt 0.007559 0.659628
vt 0.175091 0.659628
vt 0.175091 0.827160
vt 0.342624 0.659628
vt 0.342624 0.827160
vt 0.510156 0.659628
vt 0.510156 0.827160
vt 0.337250 0.474409
vt 0.179366 0.474409
vt 0.179366 0.319118
vt 0.337250 0.319118
vt 0.342624 0.994693
vt 0.175091 0.994693
vt 0.175091 0.492096
vt 0.342624 0.492096
vt 0.356975 0.464686
vt 0.539634 0.464687
vt 0.534374 0.469946
vt 0.362235 0.469946
vt 0.539634 0.647347
vt 0.534374 0.642087
vt 0.356976 0.647347
vt 0.362235 0.642087
vt 0.337250 0.161234
vt 0.179366 0.161233
vt 0.492542 0.161233
vt 0.492542 0.319118
vt 0.024075 0.319118
vt 0.024075 0.161234
vt 0.179366 0.005942
vt 0.337250 0.005942
s 0
usemtl PROPS_BedsideTable
f 1/1/1 2/2/1 4/3/1 3/4/1
f 3/4/2 4/3/2 8/5/2 7/6/2
f 7/6/3 8/5/3 6/7/3 5/8/3
f 10/9/4 11/10/4 16/11/4 13/12/4
f 3/4/4 7/6/4 5/13/4 1/14/4
f 8/5/5 4/3/5 2/15/5 6/16/5
f 5/17/6 6/18/6 10/19/6 9/20/6
f 6/18/6 2/21/6 11/22/6 10/19/6
f 2/21/6 1/23/6 12/24/6 11/22/6
f 1/23/6 5/17/6 9/20/6 12/24/6
f 14/25/6 13/12/6 16/11/6 15/26/6
f 9/27/1 10/28/1 13/12/1 14/25/1
f 11/29/3 12/30/3 15/26/3 16/11/3
f 12/31/5 9/32/5 14/25/5 15/26/5
