# Blender 4.0.2
# www.blender.org
mtllib stairs_005.mtl
o Stairs_Wide_Single
v -1.500000 0.000000 -0.005716
v 1.500000 0.000000 -0.005716
v -1.500000 0.187500 -0.005716
v 1.500000 0.187500 -0.005716
v -1.500000 0.187500 -0.381001
v 1.500000 0.187500 -0.381001
vn -0.0000 -0.0000 1.0000
vn -0.0000 1.0000 -0.0000
vt 1.001750 0.997911
vt -0.000019 0.997918
vt -0.000020 0.934395
vt 1.001749 0.934388
vt -0.000021 0.798877
vt 1.001748 0.798871
s 0
usemtl Stairs
f 1/1/1 2/2/1 4/3/1 3/4/1
f 3/4/2 4/3/2 6/5/2 5/6/2
