# Blender 4.0.2
# www.blender.org
mtllib stairs_002.mtl
o Stairs_Narrow_Full
v -0.750002 0.000000 -0.005716
v 0.749998 0.000000 -0.005716
v -0.750002 0.187500 -0.005716
v 0.749998 0.187500 -0.005716
v -0.750002 0.187500 -0.381001
v 0.749998 0.187500 -0.381001
v -0.750002 0.375000 -0.381001
v 0.749998 0.375000 -0.381001
v -0.750002 0.375000 -0.756285
v 0.749998 0.375000 -0.756285
v -0.750002 0.562499 -0.756285
v 0.749998 0.562499 -0.756285
v -0.750002 0.562499 -1.131570
v 0.749998 0.562499 -1.131570
v -0.750002 0.749999 -1.131570
v 0.749998 0.749999 -1.131570
v -0.750002 0.749999 -1.506855
v 0.749998 0.749999 -1.506855
v -0.750002 0.937499 -1.506855
v 0.749998 0.937499 -1.506855
v -0.750002 0.937499 -1.882140
v 0.749998 0.937499 -1.882140
v -0.750002 1.124998 -1.882140
v 0.749998 1.124998 -1.882140
v -0.750002 1.124998 -2.257424
v 0.749998 1.124998 -2.257424
v -0.750002 1.312498 -2.257424
v 0.749998 1.312498 -2.257424
v -0.750002 1.312498 -2.632709
v 0.749998 1.312498 -2.632709
v -0.750002 1.499997 -2.632709
v 0.749998 1.499997 -2.632709
v -0.750002 1.499997 -3.007994
v 0.749998 1.499997 -3.007994
v -0.750002 1.687497 -3.007994
v 0.749998 1.687497 -3.007994
v -0.750002 1.687497 -3.383279
v 0.749998 1.687497 -3.383279
v -0.750002 1.874997 -3.383279
v 0.749998 1.874997 -3.383279
v -0.750002 1.874997 -3.758564
v 0.749998 1.874997 -3.758564
v -0.750002 2.062496 -3.758564
v 0.749998 2.062496 -3.758564
v -0.750002 2.062496 -4.133849
v 0.749998 2.062496 -4.133849
v -0.750002 2.249996 -4.133849
v 0.749998 2.249996 -4.133849
v -0.750002 2.249996 -4.509133
v 0.749998 2.249996 -4.509133
v -0.750002 2.437496 -4.509133
v 0.749998 2.437496 -4.509133
v -0.750002 2.437496 -4.884418
v 0.749998 2.437496 -4.884418
v -0.750002 2.624996 -4.884418
v 0.749998 2.624996 -4.884418
v -0.750002 2.624996 -5.259703
v 0.749998 2.624996 -5.259703
v -0.750002 2.812495 -5.259703
v 0.749998 2.812495 -5.259703
v -0.750002 2.812495 -5.634987
v 0.749998 2.812495 -5.634987
v -0.750002 2.999995 -5.634987
v 0.749998 2.999995 -5.634987
v -0.750002 2.999995 -6.010273
v 0.749998 2.999995 -6.010273
vn -0.0000 -0.0000 1.0000
vn -0.0000 1.0000 -0.0000
vt 0.751308 0.997913
vt 0.250424 0.997917
vt 0.250423 0.934393
vt 0.751308 0.934389
vt 0.250423 0.934393
vt 0.250422 0.798875
vt 0.751307 0.798872
vt 0.250422 0.798875
vt 0.250422 0.735352
vt 0.751306 0.735349
vt 0.250422 0.735352
vt 0.250421 0.599834
vt 0.751306 0.599831
vt 0.250421 0.599834
vt 0.250421 0.536311
vt 0.751305 0.536308
vt 0.250421 0.536311
vt 0.250420 0.400793
vt 0.751304 0.400791
vt 0.751304 0.400791
vt 0.250420 0.400793
vt 0.250420 0.337269
vt 0.751304 0.337267
vt 0.250420 0.337269
vt 0.250419 0.201752
vt 0.751304 0.201750
vt 0.250419 0.201752
vt 0.250419 0.138229
vt 0.751303 0.138227
vt 0.250419 0.138229
vt 0.250419 0.002711
vt 0.751303 0.002710
vt 0.250419 0.002711
vt 0.250418 -0.060813
vt 0.751303 -0.060814
vt 0.250418 -0.060813
vt 0.250418 -0.196330
vt 0.751302 -0.196331
vt 0.250418 -0.196330
vt 0.250418 -0.259854
vt 0.751302 -0.259854
vt 0.751302 -0.259854
vt 0.250418 -0.259854
vt 0.250418 -0.395371
vt 0.751302 -0.395371
vt 0.250418 -0.395371
vt 0.250418 -0.458894
vt 0.751302 -0.458895
vt 0.250418 -0.458894
vt 0.250418 -0.594412
vt 0.751302 -0.594412
vt 0.250418 -0.594412
vt 0.250418 -0.657936
vt 0.751302 -0.657935
vt 0.751302 -0.657935
vt 0.250418 -0.657936
vt 0.250418 -0.793453
vt 0.751302 -0.793452
vt 0.250418 -0.793453
vt 0.250418 -0.856976
vt 0.751302 -0.856976
vt 0.250418 -0.856976
vt 0.250418 -0.992494
vt 0.751302 -0.992493
vt 0.250418 -0.992494
vt 0.250418 -1.056017
vt 0.751302 -1.056016
vt 0.250418 -1.056017
vt 0.250419 -1.191535
vt 0.751303 -1.191533
vt 0.250419 -1.191535
vt 0.250419 -1.255058
vt 0.751303 -1.255057
vt 0.250419 -1.255058
vt 0.250420 -1.390576
vt 0.751303 -1.390574
vt 0.751303 -1.390574
vt 0.250420 -1.390576
vt 0.250420 -1.454099
vt 0.751304 -1.454097
vt 0.751304 -1.454097
vt 0.250420 -1.454099
vt 0.250421 -1.589617
vt 0.751304 -1.589614
vt 0.250421 -1.589617
vt 0.250421 -1.653141
vt 0.751304 -1.653138
vt 0.250421 -1.653141
vt 0.250421 -1.788658
vt 0.751305 -1.788654
vt 0.751305 -1.788654
vt 0.250421 -1.788658
vt 0.250422 -1.852181
vt 0.751306 -1.852178
vt 0.250422 -1.852181
vt 0.250423 -1.987698
vt 0.751307 -1.987695
vt 0.250423 -1.987698
vt 0.250423 -2.051222
vt 0.751307 -2.051218
vt 0.250423 -2.051222
vt 0.250425 -2.186739
vt 0.751308 -2.186735
s 0
usemtl Stairs
f 1/1/1 2/2/1 4/3/1 3/4/1
f 3/4/2 4/5/2 6/6/2 5/7/2
f 5/7/1 6/8/1 8/9/1 7/10/1
f 7/10/2 8/11/2 10/12/2 9/13/2
f 9/13/1 10/14/1 12/15/1 11/16/1
f 11/16/2 12/17/2 14/18/2 13/19/2
f 13/20/1 14/21/1 16/22/1 15/23/1
f 15/23/2 16/24/2 18/25/2 17/26/2
f 17/26/1 18/27/1 20/28/1 19/29/1
f 19/29/2 20/30/2 22/31/2 21/32/2
f 21/32/1 22/33/1 24/34/1 23/35/1
f 23/35/2 24/36/2 26/37/2 25/38/2
f 25/38/1 26/39/1 28/40/1 27/41/1
f 27/42/2 28/43/2 30/44/2 29/45/2
f 29/45/1 30/46/1 32/47/1 31/48/1
f 31/48/2 32/49/2 34/50/2 33/51/2
f 33/51/1 34/52/1 36/53/1 35/54/1
f 35/55/2 36/56/2 38/57/2 37/58/2
f 37/58/1 38/59/1 40/60/1 39/61/1
f 39/61/2 40/62/2 42/63/2 41/64/2
f 41/64/1 42/65/1 44/66/1 43/67/1
f 43/67/2 44/68/2 46/69/2 45/70/2
f 45/70/1 46/71/1 48/72/1 47/73/1
f 47/73/2 48/74/2 50/75/2 49/76/2
f 49/77/1 50/78/1 52/79/1 51/80/1
f 51/81/2 52/82/2 54/83/2 53/84/2
f 53/84/1 54/85/1 56/86/1 55/87/1
f 55/87/2 56/88/2 58/89/2 57/90/2
f 57/91/1 58/92/1 60/93/1 59/94/1
f 59/94/2 60/95/2 62/96/2 61/97/2
f 61/97/1 62/98/1 64/99/1 63/100/1
f 63/100/2 64/101/2 66/102/2 65/103/2
