# Blender 4.0.2
# www.blender.org
mtllib stairs_004.mtl
o Stairs_Narrow_Half
v -0.750002 0.000000 -0.005716
v 0.749998 0.000000 -0.005716
v -0.750002 0.187500 -0.005716
v 0.749998 0.187500 -0.005716
v -0.750002 0.187500 -0.381001
v 0.749998 0.187500 -0.381001
v -0.750002 0.375000 -0.381001
v 0.749998 0.375000 -0.381001
v -0.750002 0.375000 -0.756285
v 0.749998 0.375000 -0.756285
v -0.750002 0.562499 -0.756285
v 0.749998 0.562499 -0.756285
v -0.750002 0.562499 -1.131570
v 0.749998 0.562499 -1.131570
v -0.750002 0.749999 -1.131570
v 0.749998 0.749999 -1.131570
v -0.750002 0.749999 -1.506855
v 0.749998 0.749999 -1.506855
v -0.750002 0.937499 -1.506855
v 0.749998 0.937499 -1.506855
v -0.750002 0.937499 -1.882140
v 0.749998 0.937499 -1.882140
v -0.750002 1.124998 -1.882140
v 0.749998 1.124998 -1.882140
v -0.750002 1.124998 -2.257424
v 0.749998 1.124998 -2.257424
v -0.750002 1.312498 -2.257424
v 0.749998 1.312498 -2.257424
v -0.750002 1.312498 -2.632709
v 0.749998 1.312498 -2.632709
v -0.750002 1.499997 -2.632709
v 0.749998 1.499997 -2.632709
v -0.750002 1.499997 -3.007994
v 0.749998 1.499997 -3.007994
vn -0.0000 -0.0000 1.0000
vn -0.0000 1.0000 -0.0000
vt 0.751308 0.997913
vt 0.250424 0.997917
vt 0.250423 0.934393
vt 0.751308 0.934389
vt 0.250423 0.934393
vt 0.250422 0.798875
vt 0.751307 0.798872
vt 0.250422 0.798875
vt 0.250422 0.735352
vt 0.751306 0.735349
vt 0.250422 0.735352
vt 0.250421 0.599834
vt 0.751306 0.599831
vt 0.250421 0.599834
vt 0.250421 0.536311
vt 0.751305 0.536308
vt 0.250421 0.536311
vt 0.250420 0.400793
vt 0.751304 0.400791
vt 0.751304 0.400791
vt 0.250420 0.400793
vt 0.250420 0.337269
vt 0.751304 0.337267
vt 0.250420 0.337269
vt 0.250419 0.201752
vt 0.751304 0.201750
vt 0.250419 0.201752
vt 0.250419 0.138229
vt 0.751303 0.138227
vt 0.250419 0.138229
vt 0.250419 0.002711
vt 0.751303 0.002710
vt 0.250419 0.002711
vt 0.250418 -0.060813
vt 0.751303 -0.060814
vt 0.250418 -0.060813
vt 0.250418 -0.196330
vt 0.751302 -0.196331
vt 0.250418 -0.196330
vt 0.250418 -0.259854
vt 0.751302 -0.259854
vt 0.751302 -0.259854
vt 0.250418 -0.259854
vt 0.250418 -0.395371
vt 0.751302 -0.395371
vt 0.250418 -0.395371
vt 0.250418 -0.458894
vt 0.751302 -0.458895
vt 0.250418 -0.458894
vt 0.250418 -0.594412
vt 0.751302 -0.594412
s 0
usemtl Stairs
f 1/1/1 2/2/1 4/3/1 3/4/1
f 3/4/2 4/5/2 6/6/2 5/7/2
f 5/7/1 6/8/1 8/9/1 7/10/1
f 7/10/2 8/11/2 10/12/2 9/13/2
f 9/13/1 10/14/1 12/15/1 11/16/1
f 11/16/2 12/17/2 14/18/2 13/19/2
f 13/20/1 14/21/1 16/22/1 15/23/1
f 15/23/2 16/24/2 18/25/2 17/26/2
f 17/26/1 18/27/1 20/28/1 19/29/1
f 19/29/2 20/30/2 22/31/2 21/32/2
f 21/32/1 22/33/1 24/34/1 23/35/1
f 23/35/2 24/36/2 26/37/2 25/38/2
f 25/38/1 26/39/1 28/40/1 27/41/1
f 27/42/2 28/43/2 30/44/2 29/45/2
f 29/45/1 30/46/1 32/47/1 31/48/1
f 31/48/2 32/49/2 34/50/2 33/51/2
