# Blender 4.0.2
# www.blender.org
mtllib stairs_006.mtl
o Stairs_Narrow_Single
v -0.750002 0.000000 -0.005716
v 0.749998 0.000000 -0.005716
v -0.750002 0.187500 -0.005716
v 0.749998 0.187500 -0.005716
v -0.750002 0.187500 -0.381001
v 0.749998 0.187500 -0.381001
vn -0.0000 -0.0000 1.0000
vn -0.0000 1.0000 -0.0000
vt 0.751308 0.997913
vt 0.250424 0.997917
vt 0.250423 0.934393
vt 0.751308 0.934389
vt 0.250423 0.934393
vt 0.250422 0.798875
vt 0.751307 0.798872
s 0
usemtl Stairs
f 1/1/1 2/2/1 4/3/1 3/4/1
f 3/4/2 4/5/2 6/6/2 5/7/2
