# Blender 4.0.2
# www.blender.org
mtllib stairs_001.mtl
o Stairs_Wide_Full
v -1.500000 0.000000 -0.005716
v 1.500000 0.000000 -0.005716
v -1.500000 0.187500 -0.005716
v 1.500000 0.187500 -0.005716
v -1.500000 0.187500 -0.381001
v 1.500000 0.187500 -0.381001
v -1.500000 0.375000 -0.381001
v 1.500000 0.375000 -0.381001
v -1.500000 0.375000 -0.756286
v 1.500000 0.375000 -0.756286
v -1.500000 0.562499 -0.756286
v 1.500000 0.562499 -0.756286
v -1.500000 0.562499 -1.131570
v 1.500000 0.562499 -1.131570
v -1.500000 0.749999 -1.131570
v 1.500000 0.749999 -1.131570
v -1.500000 0.749999 -1.506855
v 1.500000 0.749999 -1.506855
v -1.500000 0.937499 -1.506855
v 1.500000 0.937499 -1.506855
v -1.500000 0.937499 -1.882140
v 1.500000 0.937499 -1.882140
v -1.500000 1.124998 -1.882140
v 1.500000 1.124998 -1.882140
v -1.500000 1.124998 -2.257424
v 1.500000 1.124998 -2.257424
v -1.500000 1.312498 -2.257424
v 1.500000 1.312498 -2.257424
v -1.500000 1.312498 -2.632709
v 1.500000 1.312498 -2.632709
v -1.500000 1.499997 -2.632709
v 1.500000 1.499997 -2.632709
v -1.500000 1.499997 -3.007994
v 1.500000 1.499997 -3.007994
v -1.500000 1.687497 -3.007994
v 1.500000 1.687497 -3.007994
v -1.500000 1.687497 -3.383279
v 1.500000 1.687497 -3.383279
v -1.500000 1.874997 -3.383279
v 1.500000 1.874997 -3.383279
v -1.500000 1.874997 -3.758564
v 1.500000 1.874997 -3.758564
v -1.500000 2.062496 -3.758564
v 1.500000 2.062496 -3.758564
v -1.500000 2.062496 -4.133849
v 1.500000 2.062496 -4.133849
v -1.500000 2.249996 -4.133849
v 1.500000 2.249996 -4.133849
v -1.500000 2.249996 -4.509133
v 1.500000 2.249996 -4.509133
v -1.500000 2.437496 -4.509133
v 1.500000 2.437496 -4.509133
v -1.500000 2.437496 -4.884418
v 1.500000 2.437496 -4.884418
v -1.500000 2.624996 -4.884418
v 1.500000 2.624996 -4.884418
v -1.500000 2.624996 -5.259703
v 1.500000 2.624996 -5.259703
v -1.500000 2.812495 -5.259703
v 1.500000 2.812495 -5.259703
v -1.500000 2.812495 -5.634987
v 1.500000 2.812495 -5.634987
v -1.500000 2.999995 -5.634987
v 1.500000 2.999995 -5.634987
v -1.500000 2.999995 -6.010273
v 1.500000 2.999995 -6.010273
vn -0.0000 -0.0000 1.0000
vn -0.0000 1.0000 -0.0000
vt 1.001750 0.997911
vt -0.000019 0.997918
vt -0.000020 0.934395
vt 1.001749 0.934388
vt -0.000021 0.798877
vt 1.001748 0.798871
vt -0.000021 0.735353
vt 1.001748 0.735347
vt -0.000022 0.599835
vt 1.001747 0.599830
vt -0.000022 0.536312
vt 1.001747 0.536306
vt -0.000023 0.400795
vt 1.001746 0.400790
vt -0.000023 0.337271
vt 1.001745 0.337266
vt -0.000023 0.201753
vt 1.001745 0.201750
vt -0.000024 0.138229
vt 1.001745 0.138226
vt -0.000024 0.002712
vt 1.001745 0.002709
vt -0.000024 -0.060812
vt 1.001744 -0.060814
vt -0.000025 -0.196329
vt 1.001744 -0.196331
vt -0.000025 -0.259854
vt 1.001744 -0.259855
vt -0.000025 -0.395370
vt 1.001743 -0.395371
vt -0.000025 -0.458894
vt 1.001743 -0.458895
vt -0.000025 -0.594412
vt 1.001743 -0.594412
vt -0.000025 -0.657936
vt 1.001743 -0.657935
vt -0.000025 -0.793453
vt 1.001743 -0.793452
vt -0.000025 -0.856977
vt 1.001743 -0.856975
vt -0.000024 -0.992494
vt 1.001744 -0.992492
vt -0.000024 -1.056018
vt 1.001744 -1.056015
vt -0.000024 -1.191535
vt 1.001744 -1.191532
vt -0.000024 -1.255059
vt 1.001744 -1.255056
vt -0.000023 -1.390577
vt 1.001745 -1.390573
vt -0.000023 -1.454100
vt 1.001745 -1.454096
vt -0.000022 -1.589618
vt 1.001746 -1.589613
vt -0.000022 -1.653142
vt 1.001746 -1.653136
vt -0.000021 -1.788659
vt 1.001747 -1.788653
vt -0.000021 -1.852183
vt 1.001747 -1.852176
vt -0.000020 -1.987700
vt 1.001748 -1.987693
vt -0.000019 -2.051224
vt 1.001748 -2.051216
vt -0.000018 -2.186741
vt 1.001749 -2.186733
s 0
usemtl Stairs
f 1/1/1 2/2/1 4/3/1 3/4/1
f 3/4/2 4/3/2 6/5/2 5/6/2
f 5/6/1 6/5/1 8/7/1 7/8/1
f 7/8/2 8/7/2 10/9/2 9/10/2
f 9/10/1 10/9/1 12/11/1 11/12/1
f 11/12/2 12/11/2 14/13/2 13/14/2
f 13/14/1 14/13/1 16/15/1 15/16/1
f 15/16/2 16/15/2 18/17/2 17/18/2
f 17/18/1 18/17/1 20/19/1 19/20/1
f 19/20/2 20/19/2 22/21/2 21/22/2
f 21/22/1 22/21/1 24/23/1 23/24/1
f 23/24/2 24/23/2 26/25/2 25/26/2
f 25/26/1 26/25/1 28/27/1 27/28/1
f 27/28/2 28/27/2 30/29/2 29/30/2
f 29/30/1 30/29/1 32/31/1 31/32/1
f 31/32/2 32/31/2 34/33/2 33/34/2
f 33/34/1 34/33/1 36/35/1 35/36/1
f 35/36/2 36/35/2 38/37/2 37/38/2
f 37/38/1 38/37/1 40/39/1 39/40/1
f 39/40/2 40/39/2 42/41/2 41/42/2
f 41/42/1 42/41/1 44/43/1 43/44/1
f 43/44/2 44/43/2 46/45/2 45/46/2
f 45/46/1 46/45/1 48/47/1 47/48/1
f 47/48/2 48/47/2 50/49/2 49/50/2
f 49/50/1 50/49/1 52/51/1 51/52/1
f 51/52/2 52/51/2 54/53/2 53/54/2
f 53/54/1 54/53/1 56/55/1 55/56/1
f 55/56/2 56/55/2 58/57/2 57/58/2
f 57/58/1 58/57/1 60/59/1 59/60/1
f 59/60/2 60/59/2 62/61/2 61/62/2
f 61/62/1 62/61/1 64/63/1 63/64/1
f 63/64/2 64/63/2 66/65/2 65/66/2
