# Blender 4.0.2
# www.blender.org
mtllib wall_brick_archway_2.mtl
o Wall_Archway_Cap.001
v -0.599678 0.000000 0.075000
v 0.600678 0.000000 0.075000
v 0.600678 2.000380 0.075000
v -0.599678 2.000380 0.075000
v 0.360607 2.100380 0.075000
v 0.120536 2.150380 0.075000
v -0.119536 2.150380 0.075000
v -0.359607 2.100380 0.075000
v -0.599678 0.000000 -0.075000
v 0.600678 0.000000 -0.075000
v 0.600678 2.000380 -0.075000
v -0.599678 2.000380 -0.075000
v 0.360607 2.100380 -0.075000
v 0.120536 2.150380 -0.075000
v -0.119536 2.150380 -0.075000
v -0.359607 2.100380 -0.075000
v -1.500000 0.000000 0.075000
v 1.500000 0.000000 0.075000
v -1.500000 3.000000 0.075000
v 1.500000 3.000000 0.075000
v -0.599678 0.000000 0.075000
v 0.600678 0.000000 0.075000
v 0.600678 2.000380 0.075000
v -0.599678 2.000380 0.075000
v 0.900000 3.000000 0.075000
v 0.300000 3.000000 0.075000
v -0.300000 3.000000 0.075000
v -0.900000 3.000000 0.075000
v 0.360607 2.100380 0.075000
v 0.120536 2.150380 0.075000
v -0.119536 2.150380 0.075000
v -0.359607 2.100380 0.075000
v 1.500000 0.000000 -0.075000
v -1.500000 0.000000 -0.075000
v 1.500000 3.000000 -0.075000
v -1.500000 3.000000 -0.075000
v 0.599678 0.000000 -0.075000
v -0.600678 0.000000 -0.075000
v -0.600678 2.000380 -0.075000
v 0.599678 2.000380 -0.075000
v -0.900000 3.000000 -0.075000
v -0.300000 3.000000 -0.075000
v 0.300000 3.000000 -0.075000
v 0.900000 3.000000 -0.075000
v -0.360607 2.100380 -0.075000
v -0.120536 2.150380 -0.075000
v 0.119536 2.150380 -0.075000
v 0.359607 2.100380 -0.075000
vn 0.2955 -0.9553 -0.0000
vn 0.1025 -0.9947 -0.0000
vn -0.1025 -0.9947 -0.0000
vn -0.2955 -0.9553 -0.0000
vn -1.0000 -0.0000 -0.0000
vn 0.3845 -0.9231 -0.0000
vn -0.3845 -0.9231 -0.0000
vn 1.0000 -0.0000 -0.0000
vn -0.0000 -0.0000 1.0000
vn -0.0000 -0.0000 -1.0000
vt 0.387478 0.464663
vt 0.387478 0.526253
vt 0.462995 0.526253
vt 0.462995 0.464663
vt 0.536925 0.464663
vt 0.536925 0.526253
vt 0.612442 0.526253
vt 0.612442 0.464663
vt 0.083805 0.639543
vt 0.147747 0.639543
vt 0.147747 0.000000
vt 0.083805 0.000000
vt 0.307390 0.464663
vt 0.307390 0.526253
vt 0.692530 0.526253
vt 0.692530 0.464663
vt 0.211770 0.000000
vt 0.147828 0.000000
vt 0.147828 0.639543
vt 0.211770 0.639543
vt 0.999899 0.999900
vt 0.700186 0.666760
vt 0.700186 0.000100
vt 0.999900 0.000100
vt 0.300147 0.666760
vt 0.000100 0.999900
vt 0.000100 0.000100
vt 0.300147 0.000100
vt 0.799939 0.999900
vt 0.620178 0.700086
vt 0.380155 0.700086
vt 0.200060 0.999900
vt 0.460162 0.716750
vt 0.400020 0.999899
vt 0.540170 0.716750
vt 0.599979 0.999900
s 1
usemtl Wall01
f 8/1/1 16/2/1 15/3/2 7/4/2
f 6/5/3 14/6/3 13/7/4 5/8/4
f 3/9/5 11/10/5 10/11/5 2/12/5
f 4/13/6 12/14/6 16/2/1 8/1/1
f 7/4/2 15/3/2 14/6/3 6/5/3
f 5/8/4 13/7/4 11/15/7 3/16/7
f 1/17/8 9/18/8 12/19/8 4/20/8
s 0
f 20/21/9 23/22/9 22/23/9 18/24/9
f 24/25/9 19/26/9 17/27/9 21/28/9
f 25/29/9 29/30/9 23/22/9 20/21/9
f 19/26/9 24/25/9 32/31/9 28/32/9
f 28/32/9 32/31/9 31/33/9 27/34/9
f 27/34/9 31/33/9 30/35/9 26/36/9
f 26/36/9 30/35/9 29/30/9 25/29/9
f 36/21/10 39/22/10 38/23/10 34/24/10
f 40/25/10 35/26/10 33/27/10 37/28/10
f 41/29/10 45/30/10 39/22/10 36/21/10
f 35/26/10 40/25/10 48/31/10 44/32/10
f 44/32/10 48/31/10 47/33/10 43/34/10
f 43/34/10 47/33/10 46/35/10 42/36/10
f 42/36/10 46/35/10 45/30/10 41/29/10
