# Blender 4.0.2
# www.blender.org
mtllib wall_blue_doorway_2.mtl
o Wall_Doorway_3x1.5
v -0.750104 0.000000 0.075000
v 0.750105 0.000000 0.075000
v -0.750104 3.000000 0.075000
v 0.750105 3.000000 0.075000
v -0.543919 0.000000 0.075000
v 0.544919 0.000000 0.075000
v 0.544919 2.000380 0.075000
v -0.543919 2.000380 0.075000
vn -0.0000 -0.0000 1.0000
vt 0.500002 1.000000
vt 0.431616 0.666838
vt 0.431617 0.000141
vt 0.500002 0.000141
vt 0.068719 0.666838
vt 0.000000 1.000000
vt 0.000001 0.000141
vt 0.068719 0.000141
vt 0.068719 0.666838
vt 0.431616 0.666838
s 0
usemtl Wall01
f 4/1/1 7/2/1 6/3/1 2/4/1
f 8/5/1 3/6/1 1/7/1 5/8/1
f 3/6/1 8/9/1 7/10/1 4/1/1
o Doorframe.001
v -0.580263 -0.004932 0.100000
v 0.589263 -0.004932 0.100000
v 0.589263 2.060963 0.100000
v -0.580263 2.060963 0.100000
v -0.499293 -0.004932 0.100000
v 0.508293 -0.004932 0.100000
v 0.508293 1.984862 0.100000
v -0.499293 1.984862 0.100000
v 0.589263 2.060963 -0.100000
v -0.580263 2.060963 -0.100000
v -0.580263 -0.004932 -0.100000
v 0.589263 -0.004932 -0.100000
v 0.508293 1.984862 -0.100000
v -0.499293 1.984862 -0.100000
v -0.499293 -0.004932 -0.100000
v 0.508293 -0.004932 -0.100000
vn -0.0000 -0.0000 1.0000
vn -0.0000 -0.0000 -1.0000
vn -0.0000 -1.0000 -0.0000
vn 1.0000 -0.0000 -0.0000
vn -0.0000 1.0000 -0.0000
vn -1.0000 -0.0000 -0.0000
vt 0.581449 0.993651
vt 0.546392 0.967821
vt 0.546391 0.292451
vt 0.581449 0.292451
vt 0.007108 0.292452
vt 0.042165 0.292452
vt 0.042166 0.967821
vt 0.007109 0.993651
vt 0.007109 0.993651
vt 0.007108 0.292452
vt 0.042166 0.292452
vt 0.042166 0.967821
vt 0.546391 0.292451
vt 0.529509 0.390287
vt 0.506060 0.390288
vt 0.506060 0.329980
vt 0.529509 0.329980
vt 0.865992 0.659047
vt 0.865992 0.345212
vt 0.896287 0.345212
vt 0.896287 0.659047
vt 0.805401 0.671049
vt 0.805401 0.345212
vt 0.835696 0.345212
vt 0.835696 0.671049
vt 0.865992 0.868269
vt 0.896287 0.868269
vt 0.506060 0.390287
vt 0.482611 0.390288
vt 0.482611 0.329980
vt 0.926582 0.345212
vt 0.926582 0.659047
vt 0.896287 0.659047
vt 0.896287 0.345212
vt 0.482611 0.329980
vt 0.482611 0.681148
vt 0.424691 0.681148
vt 0.424691 0.329980
vt 0.865992 0.345212
vt 0.865992 0.671049
vt 0.835696 0.671049
vt 0.835696 0.345212
s 0
usemtl Trim01.001
f 11/11/2 15/12/2 14/13/2 10/14/2
f 9/15/2 13/16/2 16/17/2 12/18/2
f 12/18/2 16/17/2 15/12/2 11/11/2
f 17/19/3 20/20/3 24/21/3 21/22/3
f 19/14/3 18/11/3 22/12/3 23/23/3
f 18/11/3 17/19/3 21/22/3 22/12/3
f 13/24/4 9/25/4 19/26/4 23/27/4
f 16/28/5 13/29/5 23/30/5 22/31/5
f 11/32/5 10/33/5 20/34/5 17/35/5
f 12/36/6 11/28/6 17/31/6 18/37/6
f 10/38/4 14/39/4 24/40/4 20/26/4
f 14/41/7 15/42/7 21/43/7 24/44/7
f 15/45/4 16/46/4 22/47/4 21/48/4
f 9/49/7 12/50/7 18/51/7 19/52/7
o Wall_Doorway_3x1.001
v 0.750104 0.000000 -0.075000
v -0.750105 0.000000 -0.075000
v 0.750104 3.000000 -0.075000
v -0.750105 3.000000 -0.075000
v 0.543919 0.000000 -0.075000
v -0.544919 0.000000 -0.075000
v -0.544919 2.000380 -0.075000
v 0.543919 2.000380 -0.075000
vn -0.0000 -0.0000 -1.0000
vt 0.500002 1.000000
vt 0.431616 0.666838
vt 0.431617 0.000141
vt 0.500002 0.000141
vt 0.068719 0.666838
vt 0.000000 1.000000
vt 0.000001 0.000141
vt 0.068719 0.000141
vt 0.068719 0.666838
vt 0.431616 0.666838
s 0
usemtl Wall01.002
f 28/53/8 31/54/8 30/55/8 26/56/8
f 32/57/8 27/58/8 25/59/8 29/60/8
f 27/58/8 32/61/8 31/62/8 28/53/8
