# Blender 4.0.2
# www.blender.org
mtllib wall_brick_window_2.mtl
o Wall_Window_3x1.5_01
v -0.750000 0.000000 0.075000
v 0.750000 0.000000 0.075000
v -0.750000 3.000000 0.075000
v 0.750000 3.000000 0.075000
v -0.518426 2.353948 0.075000
v -0.518426 0.897699 0.075000
v 0.518426 0.897699 0.075000
v 0.518426 2.353948 0.075000
v -0.491161 2.332114 0.075000
v -0.491161 0.919534 0.075000
v 0.491161 0.919534 0.075000
v 0.491161 2.332114 0.075000
v -0.538963 2.382793 0.075000
v -0.538963 0.868854 0.075000
v 0.538963 0.868854 0.075000
v 0.538963 2.382793 0.075000
v -0.491161 2.332114 0.175000
v -0.491161 0.919534 0.175000
v 0.491161 0.919534 0.175000
v 0.491161 2.332114 0.175000
v -0.538963 2.382793 0.175000
v -0.538963 0.868854 0.175000
v 0.538963 0.868854 0.175000
v 0.538963 2.382793 0.175000
v -0.680762 0.039225 0.058809
v 0.687728 0.039225 0.058809
v -0.680762 2.962568 0.058809
v 0.687728 2.962568 0.058809
vn -0.0000 -0.0000 1.0000
vn -0.0000 -0.0000 -1.0000
vn -0.0000 1.0000 -0.0000
vn -0.0000 -1.0000 -0.0000
vn 1.0000 -0.0000 -0.0000
vn -1.0000 -0.0000 -0.0000
vt 0.077252 0.299262
vt 0.077251 0.784609
vt 0.000071 0.999929
vt 0.000071 0.000071
vt 0.422820 0.299262
vt 0.500001 0.000071
vt 0.422820 0.784609
vt 0.500001 0.999929
vt 0.042651 0.308275
vt 0.017806 0.284689
vt 0.578067 0.284689
vt 0.553222 0.308275
vt 0.553222 0.965687
vt 0.578068 0.989274
vt 0.017806 0.989274
vt 0.042652 0.965687
vt 0.553222 0.308275
vt 0.042651 0.308275
vt 0.042652 0.965688
vt 0.553222 0.965687
vt 0.578068 0.989274
vt 0.017806 0.989274
vt 0.310974 0.327594
vt 0.310974 0.561740
vt 0.269867 0.561740
vt 0.269867 0.327594
vt 0.228760 0.561740
vt 0.228760 0.327594
vt 0.269867 0.561740
vt 0.310974 0.540973
vt 0.310974 0.327594
vt 0.352081 0.327594
vt 0.352081 0.540973
vt 0.393188 0.327594
vt 0.393188 0.540973
vt 0.352081 0.540973
vt 0.105439 0.327594
vt 0.105439 0.656450
vt 0.064332 0.656450
vt 0.064332 0.327594
vt 0.105439 0.656450
vt 0.105439 0.327594
vt 0.146546 0.327594
vt 0.146546 0.656450
vt 0.187653 0.634433
vt 0.187653 0.327594
vt 0.228760 0.327594
vt 0.228760 0.634433
vt 0.187653 0.327594
vt 0.187653 0.634433
vt 0.146546 0.634433
vt 0.146546 0.327594
vt 0.355891 0.000100
vt 0.823923 0.000100
vt 0.823923 0.999900
vt 0.355891 0.999900
s 0
usemtl Wall01
f 6/1/1 5/2/1 3/3/1 1/4/1
f 7/5/1 6/1/1 1/4/1 2/6/1
f 8/7/1 7/5/1 2/6/1 4/8/1
f 5/2/1 8/7/1 4/8/1 3/3/1
usemtl Trim01
f 9/9/2 13/10/2 16/11/2 12/12/2
f 11/13/2 15/14/2 14/15/2 10/16/2
f 12/12/2 16/11/2 15/14/2 11/13/2
f 10/16/2 14/15/2 13/10/2 9/9/2
f 17/17/1 20/18/1 24/10/1 21/11/1
f 19/19/1 18/20/1 22/21/1 23/22/1
f 20/18/1 19/19/1 23/22/1 24/10/1
f 18/20/1 17/17/1 21/11/1 22/21/1
f 16/23/3 13/24/3 21/25/3 24/26/3
f 14/27/4 15/28/4 23/26/4 22/29/4
f 9/30/4 12/31/4 20/32/4 17/33/4
f 11/34/3 10/35/3 18/36/3 19/32/3
f 15/37/5 16/38/5 24/39/5 23/40/5
f 13/41/6 14/42/6 22/43/6 21/44/6
f 12/45/6 11/46/6 19/47/6 20/48/6
f 10/49/5 9/50/5 17/51/5 18/52/5
usemtl Glass
f 25/53/1 26/54/1 28/55/1 27/56/1
