# Blender 4.0.2
# www.blender.org
mtllib wall_brick_fireplace.mtl
o Wall_Fireplace
v -1.500000 0.000000 -0.000000
v 1.500000 0.000000 -0.000000
v -1.500000 3.000000 0.000000
v 1.500000 3.000000 0.000000
v -1.034931 0.000000 -0.000000
v 1.034931 0.000000 -0.000000
v 1.034931 3.000000 0.000000
v -1.034931 3.000000 0.000000
v -1.034931 0.000000 0.450133
v -1.034931 3.000000 0.450133
v 1.034931 0.000000 0.450133
v 1.034931 3.000000 0.450133
v -0.655007 0.056894 0.450133
v 0.655007 0.056894 0.450133
v 0.655007 1.167959 0.450133
v -0.655007 1.167959 0.450133
v -0.655007 0.056894 0.450133
v 0.655007 0.056894 0.450133
v 0.655007 1.167959 0.450133
v -0.655007 1.167959 0.450133
v 0.655007 1.167959 0.000133
v -0.655007 1.167959 0.000133
v -0.655007 0.056894 0.000133
v 0.655007 0.056894 0.000133
vn -0.0000 -0.0000 1.0000
vn 1.0000 -0.0000 -0.0000
vn -1.0000 -0.0000 -0.0000
vn -0.0000 1.0000 -0.0000
vn -0.0000 -1.0000 -0.0000
vt 0.844908 0.000100
vt 0.999900 0.000100
vt 0.999900 0.999900
vt 0.844908 0.999900
vt 0.000100 0.000100
vt 0.155092 0.000100
vt 0.155092 0.999900
vt 0.000100 0.999900
vt 0.306207 0.999922
vt 0.156174 0.999922
vt 0.156174 -0.000000
vt 0.306207 -0.000000
vt 0.150488 0.000000
vt 0.300521 0.000000
vt 0.300521 0.999922
vt 0.150488 0.999922
vt 0.155092 0.000100
vt 0.844908 0.000100
vt 0.718292 0.019061
vt 0.281708 0.019061
vt 0.718292 0.389341
vt 0.718292 0.019060
vt 0.155092 0.999900
vt 0.281708 0.389341
vt 0.718292 0.389342
vt 0.281708 0.019061
vt 0.281708 0.389342
vt 0.776238 0.458913
vt 0.776238 0.000000
vt 1.000000 0.000000
vt 1.000000 0.458913
vt 0.005694 -0.005694
vt 0.546781 -0.005694
vt 0.546781 0.546781
vt 0.005694 0.546781
vt 0.776238 0.000000
vt 0.776238 0.458913
vt 0.552476 0.458913
vt 0.552476 0.000000
vt 0.492533 1.000000
vt 0.000000 1.000000
vt 0.000000 0.796317
vt 0.492533 0.796317
vt 1.000000 1.000000
vt 0.507467 1.000000
vt 0.507467 0.796317
vt 1.000000 0.796317
s 0
usemtl Wall01
f 6/1/1 2/2/1 4/3/1 7/4/1
f 1/5/1 5/6/1 8/7/1 3/8/1
f 11/9/2 6/10/2 7/11/2 12/12/2
f 5/13/3 9/14/3 10/15/3 8/16/3
f 9/17/1 11/18/1 14/19/1 13/20/1
f 11/18/1 12/4/1 15/21/1 14/22/1
f 12/4/1 10/23/1 16/24/1 15/25/1
f 10/23/1 9/17/1 13/26/1 16/27/1
f 20/28/2 17/29/2 23/30/2 22/31/2
f 23/32/1 24/33/1 21/34/1 22/35/1
f 18/36/3 19/37/3 21/38/3 24/39/3
f 17/40/4 18/41/4 24/42/4 23/43/4
f 19/44/5 20/45/5 22/46/5 21/47/5
