# Blender 4.0.2
# www.blender.org
mtllib wall_blue_long_2.mtl
o Wall_3x3
v 1.500000 0.000000 -0.075000
v -1.500000 0.000000 -0.075000
v 1.500000 3.000000 -0.075000
v -1.500000 3.000000 -0.075000
v -1.500000 0.000000 0.075000
v 1.500000 0.000000 0.075000
v -1.500000 3.000000 0.075000
v 1.500000 3.000000 0.075000
vn -0.0000 -0.0000 -1.0000
vn -0.0000 -0.0000 1.0000
vt 0.000100 0.000100
vt 0.999900 0.000100
vt 0.999900 0.999900
vt 0.000100 0.999900
s 0
usemtl Wall01
f 1/1/1 2/2/1 4/3/1 3/4/1
usemtl Wall01.004
f 5/1/2 6/2/2 8/3/2 7/4/2
