# Blender 4.0.2
# www.blender.org
mtllib wall_blue_009.mtl
o Wall_Archway_Wide_Cap
v -1.349051 0.000000 -0.000000
v 1.350051 0.000000 -0.000000
v 1.350051 2.000380 0.000000
v -1.349051 2.000380 0.000000
v 0.810230 2.100380 0.000000
v 0.270410 2.150380 0.000000
v -0.269410 2.150380 0.000000
v -0.809230 2.100380 0.000000
v -1.349051 0.000000 -0.200000
v 1.350051 0.000000 -0.200000
v 1.350051 2.000380 -0.200000
v -1.349051 2.000380 -0.200000
v 0.810230 2.100380 -0.200000
v 0.270410 2.150380 -0.200000
v -0.269410 2.150380 -0.200000
v -0.809230 2.100380 -0.200000
vn 0.0922 -0.9957 -0.0000
vn -0.0922 -0.9957 -0.0000
vn -1.0000 -0.0000 -0.0000
vn 0.1821 -0.9833 -0.0000
vn -0.0000 -1.0000 -0.0000
vn -0.1821 -0.9833 -0.0000
vn 1.0000 -0.0000 -0.0000
vt 0.773342 0.532014
vt 0.773342 0.468054
vt 0.599970 0.468054
vt 0.599970 0.532014
vt 0.427337 0.532014
vt 0.427337 0.468054
vt 0.253965 0.468054
vt 0.253965 0.532014
vt 0.091084 0.690702
vt 0.160141 0.690702
vt 0.160141 0.000000
vt 0.091083 0.000000
vt 0.948912 0.532014
vt 0.948912 0.468054
vt 0.078395 0.468054
vt 0.078395 0.532014
vt 0.929104 0.000000
vt 0.861909 0.000000
vt 0.861909 0.672078
vt 0.929104 0.672078
s 0
usemtl Wall01
f 8/1/1 16/2/1 15/3/1 7/4/1
f 6/5/2 14/6/2 13/7/2 5/8/2
f 3/9/3 11/10/3 10/11/3 2/12/3
f 4/13/4 12/14/4 16/2/4 8/1/4
f 7/4/5 15/3/5 14/6/5 6/5/5
f 5/8/6 13/7/6 11/15/6 3/16/6
f 1/17/7 9/18/7 12/19/7 4/20/7
